<mxfile host="app.diagrams.net" modified="2023-04-19T13:31:14.403Z" agent="Mozilla/5.0 (Windows NT 10.0; Win64; x64) AppleWebKit/537.36 (KHTML, like Gecko) Chrome/112.0.0.0 Safari/537.36" version="21.1.9" etag="futFlwcMHVyd_noH0C59" type="github">
  <diagram name="第 1 页" id="L9LMITteTnlRZ2TkFZ2f">
    <mxGraphModel>
      <root>
        <mxCell id="0" />
        <mxCell id="1" parent="0" />
      </root>
    </mxGraphModel>
  </diagram>
</mxfile>
